<svg xmlns="http://www.w3.org/2000/svg" width="192" height="192" fill="none"><path fill="#DF99C3" fill-rule="evenodd" d="M0 96v96h192V0H0z" clip-rule="evenodd"/><path fill="#BD94AA" fill-rule="evenodd" d="M0 96v96h192V0H0zm91.75-74.311c-.963.252-2.537.252-3.5 0-.963-.251-.175-.457 1.75-.457s2.713.206 1.75.457m9.519-.033c-.677.274-2.027.291-3 .037l-1.769-.461 3-.037c1.65-.02 2.446.187 1.769.461m-18.134 1.883c-1.85.804-3.65 1.445-4 1.426-1.301-.073 4.424-2.894 5.865-2.89.825.002-.014.661-1.865 1.464M117.5 29c.34.55.168 1-.382 1s-1.278-.45-1.618-1-.168-1 .382-1 1.278.45 1.618 1m4 3c.34.55.141 1-.441 1S120 32.55 120 32s.198-1 .441-1 .719.45 1.059 1m4 3c.34.55.168 1-.382 1s-1.278-.45-1.618-1-.168-1 .382-1 1.278.45 1.618 1m-63.138 3.5c-.317.825-1.033 1.5-1.591 1.5h-1.016L61 38.5c.685-.825 1.401-1.5 1.591-1.5s.087.675-.229 1.5m-5.838 9.101c-.831 1.595-1.514 2.307-1.518 1.583-.008-1.669 2.012-5.5 2.593-4.918.24.24-.244 1.741-1.075 3.335m-3.471 8.949c-.485 1.623-.92 2.199-.967 1.282-.096-1.863.971-5.108 1.504-4.575.189.189-.053 1.671-.537 3.293m-1.36 7.181-.461 1.769-.037-3c-.02-1.65.187-2.446.461-1.769s.291 2.027.037 3M98 70.941c0 .518-.45 1.219-1 1.559l-1 .618v-1.559c0-.857.45-1.559 1-1.559s1 .423 1 .941m21.729 6.663c-.332.332-1.195.368-1.916.079l-1.313-.525 1.917-.079c1.054-.043 1.644.193 1.312.525m-5.46 1.052c-.677.274-2.027.291-3 .037l-1.769-.461 3-.037c1.65-.02 2.446.187 1.769.461M119 80c-1.375.44-3.625.801-5 .801h-2.5L114 80c1.375-.44 3.625-.801 5-.801h2.5zm-9.75 1.662c-.687.278-1.812.278-2.5 0-.687-.277-.125-.504 1.25-.504s1.938.227 1.25.504M99 83.607c0 .216-.675.393-1.5.393s-1.5-.436-1.5-.969.675-.709 1.5-.393c.825.317 1.5.753 1.5.969m4.729-1.003c-.332.332-1.195.368-1.916.079l-1.313-.525 1.917-.079c1.054-.043 1.644.193 1.312.525m-52.04 45.146c-.251.963-.457.175-.457-1.75s.206-2.713.457-1.75c.252.963.252 2.537 0 3.5m.994 6.438-.525 1.312-.079-1.917c-.043-1.054.193-1.644.525-1.312s.368 1.195.079 1.917M58 146.118c0 .55-.45.722-1 .382s-1-1.068-1-1.618.45-.722 1-.382 1 1.068 1 1.618m5.547 6.044 3.953 4.162-3-2.054c-3.641-2.493-7.169-6.27-5.858-6.27.524 0 2.731 1.873 4.905 4.162M120 157c0 .55-.198 1-.441 1s-.719-.45-1.059-1-.141-1 .441-1 1.059.45 1.059 1m-48.474 1.807c-.307.308-1.114.001-1.793-.683l-1.233-1.242 1.793.682c.986.376 1.541.935 1.233 1.243m42.474-.429c0 .207-.787.995-1.75 1.75l-1.75 1.372 1.372-1.75c1.307-1.666 2.128-2.195 2.128-1.372M109.5 163c-.34.55-1.154.993-1.809.985l-1.191-.016L108 163c1.921-1.242 2.267-1.242 1.5 0" clip-rule="evenodd"/><path fill="#D882B5" fill-rule="evenodd" d="M0 96v96h192V0H0zm91.75-74.311c-.963.252-2.537.252-3.5 0-.963-.251-.175-.457 1.75-.457s2.713.206 1.75.457m9.519-.033c-.677.274-2.027.291-3 .037l-1.769-.461 3-.037c1.65-.02 2.446.187 1.769.461m-18.134 1.883c-1.85.804-3.65 1.445-4 1.426-1.301-.073 4.424-2.894 5.865-2.89.825.002-.014.661-1.865 1.464M117.5 29c.34.55.168 1-.382 1s-1.278-.45-1.618-1-.168-1 .382-1 1.278.45 1.618 1m4 3c.34.55.141 1-.441 1S120 32.55 120 32s.198-1 .441-1 .719.45 1.059 1m4 3c.34.55.168 1-.382 1s-1.278-.45-1.618-1-.168-1 .382-1 1.278.45 1.618 1m-63.138 3.5c-.317.825-1.033 1.5-1.591 1.5h-1.016L61 38.5c.685-.825 1.401-1.5 1.591-1.5s.087.675-.229 1.5m-5.838 9.101c-.831 1.595-1.514 2.307-1.518 1.583-.008-1.669 2.012-5.5 2.593-4.918.24.24-.244 1.741-1.075 3.335m-3.471 8.949c-.485 1.623-.92 2.199-.967 1.282-.096-1.863.971-5.108 1.504-4.575.189.189-.053 1.671-.537 3.293m-1.304 55.135c-.164 9.798-.298 2.065-.299-17.185 0-19.25.134-27.267.298-17.815.164 9.453.165 25.203.001 35M98 70.941c0 .518-.45 1.219-1 1.559l-1 .618v-1.559c0-.857.45-1.559 1-1.559s1 .423 1 .941m21.729 6.663c-.332.332-1.195.368-1.916.079l-1.313-.525 1.917-.079c1.054-.043 1.644.193 1.312.525m-5.46 1.052c-.677.274-2.027.291-3 .037l-1.769-.461 3-.037c1.65-.02 2.446.187 1.769.461M119 80c-1.375.44-3.625.801-5 .801h-2.5L114 80c1.375-.44 3.625-.801 5-.801h2.5zm-9.75 1.662c-.687.278-1.812.278-2.5 0-.687-.277-.125-.504 1.25-.504s1.938.227 1.25.504M99 83.607c0 .216-.675.393-1.5.393s-1.5-.436-1.5-.969.675-.709 1.5-.393c.825.317 1.5.753 1.5.969m4.729-1.003c-.332.332-1.195.368-1.916.079l-1.313-.525 1.917-.079c1.054-.043 1.644.193 1.312.525m-51.046 51.584-.525 1.312-.079-1.917c-.043-1.054.193-1.644.525-1.312s.368 1.195.079 1.917M58 146.118c0 .55-.45.722-1 .382s-1-1.068-1-1.618.45-.722 1-.382 1 1.068 1 1.618m5.547 6.044 3.953 4.162-3-2.054c-3.641-2.493-7.169-6.27-5.858-6.27.524 0 2.731 1.873 4.905 4.162M120 157c0 .55-.198 1-.441 1s-.719-.45-1.059-1-.141-1 .441-1 1.059.45 1.059 1m-48.474 1.807c-.307.308-1.114.001-1.793-.683l-1.233-1.242 1.793.682c.986.376 1.541.935 1.233 1.243m39.964 2.203c-1.575 1.645-3.191 2.99-3.591 2.99s.696-1.471 2.437-3.268c1.74-1.798 3.356-3.143 3.591-2.99s-.862 1.624-2.437 3.268" clip-rule="evenodd"/><path fill="#D2539F" fill-rule="evenodd" d="M0 96v96h192V0H0zm107.117-72.834c2.96 1.191 8.833 4.791 13.051 8 4.217 3.209 8.154 5.834 8.75 5.834.595 0 1.082.45 1.082 1 0 2.09-2.477.793-10.597-5.547-9.698-7.573-13.233-9.257-21.174-10.087l-5.76-.602-6.299 1.614c-3.465.888-8.373 2.829-10.906 4.313-10.604 6.215-20.089 19.505-22.262 31.195L52 64.273v33.03c0 18.167-.276 32.754-.613 32.417-.46-.46-.806-69.22-.349-69.22.05 0 .228-1.389.397-3.086C51.802 53.718 57.704 41 59.051 41c.522 0 .949-.471.949-1.048C60 38.587 69.587 29 70.952 29c.577 0 1.048-.41 1.048-.911 0-1.157 8.698-5.424 11.982-5.877 1.365-.188 2.678-.538 2.917-.777S90.573 21 94.533 21h7.2zm-1.622 49.83 6.278 4.995 5.25-.995c2.887-.548 5.976-.989 6.863-.981l1.614.016-1.452.918c-.799.506-1.78.716-2.181.469-.401-.248-1.011.007-1.357.566L119.882 79h1.726c3.596 0 .573.871-8.358 2.408-10.92 1.879-12.25 1.937-12.25.529 0-.584.787-.983 1.75-.885 3.817.389 8.25-.098 8.25-.904 0-1.237-12.002-10.479-12.701-9.78-.324.323-.807 2.868-1.075 5.654l-.487 5.065 1.882 1.425 1.881 1.424-2.25.032c-1.237.018-2.292-.306-2.344-.718C94.811 74.524 95.743 68 98.083 68c.624 0 3.959 2.248 7.412 4.996m-46.976 73.032c2.826 4.078 5.983 6.87 17.562 15.533l7.042 5.268L88 167.5l4.878.671 5.811-1.298 5.811-1.298 5.957-5.787c3.276-3.184 6.218-5.788 6.537-5.788.32 0 2.14 1.332 4.044 2.959l3.462 2.96 2.809.04 2.809.041-.668 1.081-.668 1.081-2.528-.634c-1.39-.349-3.971-1.736-5.735-3.081-3.432-2.618-5.519-3.128-5.519-1.348 0 1.828-5.372 6.256-11.113 9.161L98.471 169H85.978l-4.489-2.11c-2.469-1.161-4.489-2.511-4.489-3 0-.49-.606-.89-1.347-.89-.74 0-2.968-1.575-4.95-3.5s-4.076-3.5-4.653-3.5c-.578 0-1.05-.45-1.05-1s-.47-1-1.045-1c-1.116 0-5.955-4.491-5.955-5.526 0-.339-.643-1.259-1.428-2.045-2.119-2.119-5.761-12.504-5.029-14.339l.635-1.59 1.825 5.822c1.004 3.203 3.036 7.57 4.516 9.706M140 155v5h-1.5c-.825 0-1.5-.45-1.5-1s.45-1 1-1h1v-4c0-2.2.225-4 .5-4s.5 2.25.5 5m-5 5c0 .55-.9 1-2 1s-2-.45-2-1 .9-1 2-1 2 .45 2 1" clip-rule="evenodd"/><path fill="#6F2B54" fill-rule="evenodd" d="M84.286 24.451c-6.38 1.994-12.367 5.855-18.168 11.717l-5.235 5.291-3.692 7.465L53.5 56.39l-.331 35.555-.331 35.555 1.199 5.5c3.797 17.41 15.71 25.974 30.444 21.884 5.423-1.506 11.887-6.125 14.51-10.37 1.195-1.933 2.679-3.514 3.298-3.514s2.797 1.631 4.839 3.625l3.713 3.625 5.509-.688c3.031-.379 5.973-1.247 6.54-1.929.566-.683 1.179-5.492 1.362-10.687l.333-9.446.207 10.678.208 10.679 6.011 4.571c3.306 2.515 6.249 4.572 6.538 4.572s.471-12.181.402-27.069l-.126-27.069-6.056-4.681c-3.331-2.574-6.442-4.568-6.913-4.431-.471.138-.856-.464-.856-1.336v-1.586l6.392 5.086c6.781 5.396 7.62 5.82 7.587 3.836-.025-1.447-11.681-10.374-13.058-10-.506.138-.921-1.55-.921-3.75v-4h-2.802c-1.541 0-9.078 1.123-16.75 2.496-7.671 1.372-14.038 2.497-14.148 2.5-.11.002-.363 2.592-.561 5.754l-.361 5.75-.189-6.275L89 84.95l2.992-.598 2.993-.599-.12-5.215-.121-5.214-5.622-4.412C82.371 63.614 82 63.426 82 65.297c0 .804 2.475 3.331 5.5 5.615s5.5 4.401 5.5 4.704c0 .304-1.912-.919-4.25-2.717a959 959 0 0 0-5.5-4.207L82 67.755l.029 20.873.029 20.872 5.856 4.25c3.221 2.338 6.133 4.25 6.471 4.25s.615-1.715.615-3.812v-3.812l-3-2.218-3-2.218.136-3.22.136-3.22.443 2.32.442 2.32 3.672-.32 3.671-.32.308 5.404c.333 5.849-.926 9.987-3.839 12.624l-1.847 1.672H84.58l-1.79-2.211-1.79-2.211V57.846l2.923-2.923L86.846 52h7.009l2.072 2.635L98 57.27v8.947l2.25-.527c1.237-.29 7.126-1.311 13.086-2.269l10.836-1.742 1.004-2.59 1.005-2.589-.628-5.491c-.845-7.397-4.474-14.964-9.53-19.871l-4.175-4.051-5.461-2.043L100.925 23l-6.213.067c-3.416.037-8.108.659-10.426 1.384M123 38.985c0 1.288 11.242 10.11 11.954 9.381.647-.662-9.672-10.366-11.024-10.366-.511 0-.93.443-.93.985m3.184 8.113 1.08 3.099-.61 5.838-.61 5.838 5.728 4.556c3.15 2.506 6.329 4.559 7.063 4.564l1.336.007-.433-6.25c-.443-6.393-1.127-9.953-2.269-11.8-.936-1.514-10.495-8.95-11.507-8.95h-.858zm-33.942 8.599c1.484 1.483 3.008 2.386 3.388 2.006.971-.97-2.611-4.703-4.512-4.703h-1.573zM83 57.352c0 .393 10.784 8.877 12.75 10.032.688.404 1.25.324 1.25-.177C97 66.054 85.543 57 84.084 57c-.596 0-1.084.159-1.084.352m-1 3.5c0 1.357 11.91 10.345 13.157 9.929.62-.207-1.853-2.717-5.494-5.578C82.88 59.872 82 59.372 82 60.852m28.58 4.003c-5.457.905-10.042 2.095-10.189 2.645s2.415 2.955 5.694 5.346l5.963 4.345 10.447-1.714c5.746-.942 11.159-1.44 12.028-1.106l1.581.606-.558-.903c-.307-.497-.038-1.077.598-1.289s-1.499-2.497-4.744-5.078l-5.9-4.692-2.5.097c-1.375.054-6.964.838-12.42 1.743M125 84.926c0 1.085 10.93 10.072 12.25 10.073 1.758.002.328-1.756-4.547-5.591-2.862-2.25-5.765-4.414-6.453-4.809l-1.25-.717zM139.425 114c0 11.825.144 16.662.321 10.75s.177-15.587 0-21.5c-.177-5.912-.321-1.075-.321 10.75m-14.69-1.25c-.206 2.612-.375.475-.375-4.75s.169-7.362.375-4.75.206 6.888 0 9.5M92 105.8c0 1.246 2.259 3.2 3.7 3.2.715 0 1.3-.9 1.3-2v-2h-2.5c-1.375 0-2.5.36-2.5.8m-9.943 6.45c.062 1.367 9.279 8.75 10.924 8.75 2.117 0 .848-1.66-4.406-5.763-5.84-4.562-6.606-4.912-6.518-2.987m-.05 4.5c.01 1.081 6.934 5.643 7.581 4.995.299-.299-.991-1.713-2.867-3.144-3.511-2.678-4.726-3.155-4.714-1.851M139.32 142c0 3.575.182 5.037.403 3.25s.222-4.713 0-6.5c-.221-1.787-.403-.325-.403 3.25m-39.75 5.166c.753 1.759 12.375 10.222 13.075 9.522.507-.506-10.725-9.784-12.737-10.522-.5-.183-.652.267-.338 1m19.135 1.133c-2.637.514-4.662 1.309-4.5 1.767s2.866 2.826 6.008 5.261l5.713 4.429 4.705-.879c2.587-.484 4.923-1.097 5.189-1.364.496-.495-2.402-3.003-8.756-7.58l-3.564-2.567zM96 149.321c0 .487 12.849 10.679 13.463 10.679 1.833 0-.245-2.485-5.387-6.442-5.07-3.901-8.076-5.478-8.076-4.237m-2 2.491c0 1.314 11.093 10.171 12.75 10.181 2.279.013 1.197-1.447-4.269-5.76-5.91-4.665-8.481-6.005-8.481-4.421m-5.372 2.907c-1.579.829-6.038 1.794-9.908 2.144l-7.036.637 6.241 4.372 6.24 4.372 6.168.489 6.167.49 4.254-1.849c2.34-1.017 4.14-2.17 4-2.561-.355-.995-11.854-9.837-12.624-9.707-.347.058-1.922.784-3.502 1.613" clip-rule="evenodd"/><path fill="#451F36" fill-rule="evenodd" d="M86 24.552c-15.652 4.333-28.594 18.54-32.048 35.18l-1.113 5.361.371 33.704.37 33.703 2.218 5.579c2.705 6.805 7.905 13.078 12.745 15.374l3.608 1.713 5.3.047 5.3.048 5.445-2.493 5.445-2.493 3.894-4.887c2.143-2.689 4.021-5.073 4.175-5.299s2.469 1.435 5.146 3.692l4.867 4.104 1.888-.387c1.039-.213 3.577-.658 5.639-.988l3.75-.601v-32.454c0-17.85-.249-32.455-.553-32.455-1.166 0-30.011 5.085-31.197 5.5l-1.25.437v17.087l4-.64 4-.64v6.694c0 9.666-3.201 14.494-9.639 14.54l-3.139.022-2.361-1.91-2.361-1.911-.292-29.52-.293-29.52 1.507-3.606 1.506-3.605 3.544-1.48 3.545-1.482 2.515.631c1.383.347 3.179 1.58 3.991 2.74L98 56.445V65h1.626c3.16 0 20.907-3.122 23.25-4.09l2.377-.982-.461-7.714-.461-7.714-2.171-4.222c-3.3-6.414-7.748-10.934-13.478-13.693L103.5 24.09l-6-.53-6-.53zm42.443 18.967c2.718 2.436 5.193 4.178 5.499 3.873.673-.674-8.028-8.339-9.442-8.317-.55.008 1.224 2.008 3.943 4.444M126 45.88c0 .943 10.214 9.121 11.392 9.121 1.509 0-1.101-3.003-5.582-6.422-4.896-3.735-5.81-4.16-5.81-2.7m1.2 8.371c-.13 2.337-.34 4.982-.468 5.876l-.232 1.626 5.966 4.656 5.966 4.656.818-2.212c.45-1.216.523-4.183.162-6.592l-.657-4.38-5.218-3.94c-2.87-2.167-5.417-3.94-5.66-3.94s-.548 1.913-.677 4.25m-35.2.128c0 .207.787.995 1.75 1.75L95.5 57.5l-1.372-1.75C92.821 54.084 92 53.555 92 54.378m-6 9.62c1.925 1.731 4.85 4.1 6.5 5.264l3 2.116-1.754-2.023c-.965-1.112-3.89-3.481-6.5-5.265L82.5 60.848zm3-2.62c0 .207.787.995 1.75 1.75L92.5 64.5l-1.372-1.75C89.821 61.084 89 60.555 89 61.378m23.5 3.735c-6.05 1.046-11.333 2.012-11.739 2.145-1.454.476 10.78 9.123 12.739 9.003 4.46-.274 22.497-3.625 22.457-4.173-.059-.816-9.446-7.98-11.104-8.475-.744-.222-6.303.453-12.353 1.5M93 64.378c0 .207.787.995 1.75 1.75L96.5 67.5l-1.372-1.75C93.821 64.084 93 63.555 93 64.378m-11 1.064c0 .841 12.124 9.767 12.609 9.282.268-.267-2.122-2.56-5.311-5.098C83.991 65.406 82 64.264 82 65.442m0 4.41C82 70.722 93.352 80 94.416 80c1.786 0-.087-2.232-5.332-6.352C83.054 68.91 82 68.345 82 69.852m.07 18.898-.096 15.75 5.978 4.75c3.288 2.612 6.219 4.75 6.513 4.75 1.748 0 .02-3.325-2.965-5.707L88 105.5V84.95l3.021-.604c1.661-.332 3.227-.937 3.478-1.345.413-.667-10.629-10-11.831-10-.276 0-.545 7.087-.598 15.75m43.48-2.95c5.121 4.313 10.637 8.346 10.965 8.018.489-.489-10.034-8.818-11.14-8.818-.426 0-.348.36.175.8m3.45 7.296c4.915 4.381 8.031 6.417 7.944 5.19-.07-.986-10.538-9.3-11.636-9.243-.444.023 1.217 1.847 3.692 4.053m-4 .837c0 .772 5.26 5.37 10.75 9.395l1.25.917-.004-1.373c-.002-.754-2.48-3.284-5.507-5.622-5.787-4.469-6.489-4.828-6.489-3.317m.036 27.476-.088 24.439 5.618 4.576c3.089 2.517 5.914 4.576 6.276 4.576.362-.001.618-3.038.569-6.75s-.179-14.85-.289-24.75l-.2-18-4.664-3.5c-2.565-1.925-5.22-3.844-5.899-4.265l-1.235-.765zM93.57 105.887c-.301.487.122 1.442.941 2.122L96 109.245v-2.123c0-2.145-1.421-2.868-2.43-1.235M82 107.84c0 .814 11.499 10.16 12.501 10.16 1.801 0-.309-2.605-5.251-6.485-5.73-4.498-7.25-5.269-7.25-3.675m2.5 6.747c5.365 4.498 8.5 6.568 8.5 5.615 0-1.186-8.963-8.214-10.414-8.166-.597.02.264 1.168 1.914 2.551m.5 3.791c0 .207.787.995 1.75 1.75l1.75 1.372-1.372-1.75c-1.307-1.666-2.128-2.195-2.128-1.372m33.25 30.345c-1.787.222-3.25.77-3.25 1.219 0 .448 2.405 2.67 5.345 4.938l5.345 4.124 4.691-.643c2.581-.353 4.563-1.009 4.405-1.457-.47-1.338-11.06-8.917-12.217-8.744-.588.088-2.532.342-4.319.563m-20.368 1.541c1.555 1.979 10.51 8.736 11.579 8.736.782 0-3.017-3.207-8.961-7.564-2.2-1.613-3.378-2.14-2.618-1.172m5.118-.886c0 .207.787.995 1.75 1.75l1.75 1.372-1.372-1.75c-1.307-1.666-2.128-2.195-2.128-1.372m-7 4.621c6.334 4.953 11.239 8.229 10.887 7.27-.585-1.589-10.644-9.272-12.108-9.247-.703.012-.154.902 1.221 1.977m11-1.621c0 .207.787.995 1.75 1.75l1.75 1.372-1.372-1.75c-1.307-1.666-2.128-2.195-2.128-1.372m-16 2.064c0 .577 11.673 9.558 12.424 9.558 1.794 0-.076-2.252-4.881-5.88-4.866-3.674-7.543-4.979-7.543-3.678M87.5 156l-.618 1h-14l.557.902c.307.495 3.137 2.613 6.289 4.705l5.731 3.805h13.529l1.072-1.072 1.073-1.073-5.817-4.626c-6.171-4.909-6.84-5.22-7.816-3.641" clip-rule="evenodd"/><path fill="#27131F" fill-rule="evenodd" d="M81.73 26.42c-10.5 4.318-18.105 11.509-23.297 22.028L54.952 55.5l-.75 7.5c-.413 4.125-.515 21.9-.226 39.5l.524 32 2.808 5.997c3.433 7.333 5.986 10.21 11.192 12.613 10.058 4.642 23.269.602 30.056-9.19 1.494-2.156 3.242-3.92 3.884-3.92s2.718 1.618 4.614 3.595l3.446 3.595 5.224-.52c2.874-.286 5.686-.805 6.25-1.154l1.026-.634V81.05l-2.75.534c-1.513.294-8.825 1.565-16.25 2.826l-13.5 2.293v16.671l4 .063 4 .063.326 4.5c.437 6.028-1.305 11.445-4.485 13.946L91.73 124h-7.585l-2.072-2.635L80 118.73V59.901l1.517-2.934C83.116 53.875 87.596 51 90.815 51c1.054 0 3.089.923 4.522 2.051l2.608 2.051.663 4.998.663 4.999 2.614-.524c1.438-.289 6.885-1.243 12.104-2.122s9.719-1.83 10-2.114.476-3.739.433-7.678l-.079-7.161-2.626-5.128c-3.39-6.618-7.924-11.094-14.196-14.014L102.5 24.02l-7.5.014-7.5.013zm46.269 16.404c2.474 2.206 4.692 3.819 4.927 3.583.448-.448-1.4-2.035-6.426-5.516-1.65-1.143-.975-.273 1.499 1.933m-1.417 3.374C127.34 47.964 137 55.274 137 54.082c0-.87-6.835-6.821-9.739-8.479l-1.238-.707zm.418 4.743c0 .518 2.457 2.861 5.461 5.206 3.003 2.346 5.264 4.461 5.025 4.7-.239.24-2.422-1.192-4.85-3.182l-4.415-3.618-.597 2.227c-1.161 4.333-.569 5.599 4.507 9.641 2.821 2.247 5.533 4.085 6.025 4.085.971 0 .92-10.358-.058-11.687-.916-1.246-9.857-8.313-10.516-8.313-.32 0-.582.424-.582.941m-12.797 14.188c-5.663.958-11.026 1.884-11.917 2.057l-1.621.314 5.735 4.423 5.734 4.424 11.433-1.793c6.288-.986 11.433-2.135 11.433-2.553s-2.363-2.528-5.25-4.688l-5.25-3.927zm-31.077.641c.206.557 2.792 2.916 5.748 5.242 2.955 2.327 5.205 3.775 5 3.218s-2.792-2.916-5.748-5.242c-2.955-2.327-5.205-3.775-5-3.218m-.087 4.98c.037.719 8.452 7.348 10.313 8.125 2.271.948-.305-1.99-4.611-5.261-4.896-3.718-5.769-4.157-5.702-2.864M83 74.903c0 .552 1.8 2.449 4 4.217 2.199 1.768 3.793 3.42 3.542 3.671-.252.252-1.939-.792-3.75-2.32L83.5 77.693l-.55 6.404c-.302 3.522-.355 9.675-.117 13.674l.433 7.27 4.997 3.98c2.749 2.188 5.375 3.979 5.836 3.979 1.554 0-.175-2.68-3.148-4.878L88 105.94V84.826l3-1.132c1.65-.623 2.99-1.371 2.979-1.663-.02-.488-6.564-5.454-9.66-7.331L83 73.901zm45 17.094c1.925 1.732 4.85 4.101 6.5 5.265l3 2.116-1.754-2.023c-.965-1.112-3.89-3.481-6.5-5.265l-4.746-3.242zm-3 1.72c0 .529 2.7 3.059 6 5.621s6 4.241 6 3.728c0-.771-5.263-5.37-10.75-9.394l-1.25-.917zm.015 3.967c.009.449.346 1.281.75 1.85 1.032 1.452 9.804 8.466 10.588 8.466 1.856 0 .03-2.19-5.353-6.419-3.3-2.592-5.993-4.346-5.985-3.897m.306 26.468.254 22.151 5.713 4.413 5.712 4.412v-44.885l-5.342-4.121c-2.939-2.267-5.624-4.122-5.967-4.122-.344 0-.51 9.968-.37 22.152m-31.118-18.298-1.298.823 1.548 1.284L96 109.245v-2.123c0-2.391-.013-2.4-1.797-1.268M83 107.821c0 .516 1.912 2.487 4.25 4.379 5.232 4.236 6.75 5.157 6.75 4.096 0-.452-2.475-2.755-5.5-5.118-3.025-2.362-5.5-3.873-5.5-3.357m.039 4.91c.049.97 8.975 7.588 9.511 7.052.218-.218-1.842-2.067-4.577-4.109s-4.955-3.367-4.934-2.943m36.172 36.151c-1.809.34-3.202 1.068-3.096 1.618.107.55 2.427 2.666 5.155 4.702l4.962 3.702 3.134-.584c1.724-.322 3.5-.914 3.948-1.316.78-.702-8.919-9.143-10.195-8.872-.34.072-2.099.41-3.908.75m-23.506 4.252c.663.804 3.363 2.939 6 4.744l4.795 3.282-4-3.619c-2.2-1.99-4.9-4.125-6-4.744l-2-1.124zm-4.622 1.234c3.097 2.738 12.035 9.632 12.486 9.632 1.426 0-.429-2.065-5.29-5.891-2.871-2.26-5.758-4.109-6.416-4.109s-1.009.166-.78.368m-1.652 3.555c2.651 2.93 9.332 7.323 10.53 6.923 1.261-.42-9.254-8.846-11.041-8.846h-1.23zm-10.915-.031-3.983.608 4.483 3.292c5.313 3.9 7.083 4.434 13.33 4.02l4.714-.312-5.455-4.25c-5.534-4.312-6.022-4.437-13.089-3.358" clip-rule="evenodd"/><path fill="#000" fill-rule="evenodd" d="M83.942 25.828c-14.638 5.371-25.8 18.084-29.007 33.037l-1.074 5.013.361 34.811.362 34.811 1.958 4.979 1.958 4.978 4.5 4.678 4.5 4.679 4.386 1.168 4.386 1.168 4.803-.66 4.803-.661 4.43-2.809c2.436-1.545 5.724-4.544 7.305-6.665 1.582-2.12 3.293-4.154 3.803-4.52s3.071 1.143 5.692 3.353l4.764 4.017 5.064-.696 5.064-.697V82h-1.249c-1.223 0-23.057 3.622-27.501 4.562l-2.25.476v16.049l3.75-.294 3.75-.293.297 6.806.297 6.806-2.117 3.425-2.116 3.424-3.768 1.129-3.768 1.129-3.148-1.628-3.148-1.627-.765-2.732c-.42-1.503-.764-15.332-.764-30.732v-28l1.391-3.297 1.391-3.297 2.809-1.453c3.793-1.962 8.222-1.83 10.88.323l2.193 1.775.668 5.058.668 5.057 11-1.855c6.05-1.02 11.563-2.056 12.25-2.302l1.25-.446.005-6.282.005-6.281-1.75-5-1.75-5-5.056-5-5.056-5-4.949-1.755-4.949-1.755-6 .083c-3.3.045-8.051.835-10.558 1.755M131.5 50c.995 1.1 2.035 2 2.31 2s-.315-.9-1.31-2-2.035-2-2.31-2 .315.9 1.31 2m-3.438 1.691c.081 1.058 9.009 7.571 9.587 6.993.244-.243-1.265-1.772-3.353-3.396-4.824-3.752-6.312-4.61-6.234-3.597m-.455 6.523c-.341 1.708-.505 3.175-.364 3.26s2.328 1.813 4.86 3.84S137.222 69 137.853 69H139v-5.76l-5.386-4.066-5.386-4.066zm-16.351 7.651L101.013 67.5l5.607 4.333 5.608 4.333 9.136-1.609c5.025-.885 10.185-1.84 11.467-2.123l2.331-.513-4.974-3.96c-5.553-4.422-4.848-4.344-18.932-2.096M83 70.313c0 .247 1.652 1.71 3.671 3.25s3.356 2.289 2.97 1.665C88.85 73.948 83 69.619 83 70.313m0 4.423c0 1.051 9.901 8.696 10.494 8.103.235-.235-2.03-2.346-5.033-4.692S83 74.267 83 74.736m8 1.642c0 .207.787.995 1.75 1.75L94.5 79.5l-1.372-1.75C91.821 76.084 91 75.555 91 76.378m-8 15.409v12.786l5.084 3.796c5.486 4.095 7.853 4.439 3.115.452l-2.886-2.429-.695-10.086-.694-10.087 1.471-1.471 1.471-1.471-2.893-2.139C85.383 79.962 83.838 79 83.54 79c-.297 0-.54 5.754-.54 12.787m46.5 5.638c2.2 2.009 4.9 4.14 6 4.736 2.64 1.431 1.107.018-5-4.604l-5-3.785zm-.5 4.626c4.196 3.594 7.014 5.308 6.961 4.234-.046-.932-8.525-7.297-9.669-7.258-.436.015.783 1.376 2.708 3.024m-2.961 22.64.039 21.809 4.688 3.5c2.578 1.925 5.036 3.65 5.461 3.833s.773-9.349.773-21.183v-21.516l-4.25-3.412c-2.338-1.876-4.812-3.733-5.5-4.126l-1.25-.714zM94.5 107c.34.55.816 1 1.059 1s.441-.45.441-1-.477-1-1.059-1-.781.45-.441 1m-11 1.707c.55.523 3.25 2.653 6 4.733l5 3.781-4-3.698c-2.2-2.034-4.9-4.163-6-4.733l-2-1.035zm34.222 41.136-1.778.703 4.887 3.727 4.887 3.727 2.391-.07c1.315-.039 3.188-.386 4.162-.771l1.772-.7-4.996-3.73-4.995-3.729-2.276.07c-1.252.039-3.076.387-4.054.773M94.5 156.468c1.65 1.449 4.35 3.548 6 4.666l3 2.031-3-2.633c-1.65-1.449-4.35-3.548-6-4.666l-3-2.031zm-5.95.332c5.493 4.626 10.653 8.33 11.05 7.933.63-.63-9.512-8.733-10.931-8.733H87.6zm-9.455.94-4.406.39 4.808 3.418c5.013 3.564 9.211 4.846 14.032 4.284l2.845-.332-5.644-4.25c-3.104-2.338-6.001-4.171-6.437-4.075s-2.775.35-5.198.565" clip-rule="evenodd"/></svg>