<?xml version="1.0" standalone="no"?>
<!DOCTYPE svg PUBLIC "-//W3C//DTD SVG 20010904//EN"
 "http://www.w3.org/TR/2001/REC-SVG-20010904/DTD/svg10.dtd">
<svg version="1.0" xmlns="http://www.w3.org/2000/svg"
 width="239.000000pt" height="239.000000pt" viewBox="0 0 239.000000 239.000000"
 preserveAspectRatio="xMidYMid meet">
<metadata>
Created by potrace 1.11, written by Peter Selinger 2001-2013
</metadata>
<g transform="translate(0.000000,239.000000) scale(0.100000,-0.100000)"
fill="#000000" stroke="none">
<path d="M1074 2308 c-3 -5 -18 -8 -34 -8 -16 0 -31 -4 -35 -10 -3 -5 -12 -7
-20 -3 -8 3 -15 1 -15 -5 0 -6 -13 -13 -30 -17 -16 -4 -30 -11 -30 -16 0 -5
-6 -9 -14 -9 -7 0 -19 -7 -26 -15 -7 -9 -15 -13 -18 -11 -2 3 -13 -5 -23 -17
-10 -12 -18 -18 -19 -14 0 8 -150 -140 -150 -149 0 -3 -7 -12 -15 -21 -8 -8
-13 -18 -10 -23 3 -4 -2 -11 -11 -14 -13 -5 -46 -65 -49 -91 0 -5 -6 -21 -12
-35 -19 -42 -26 -64 -27 -87 -1 -12 -4 -25 -9 -29 -9 -10 -9 -1031 1 -1038 4
-2 7 -23 6 -45 0 -23 3 -41 8 -41 4 0 8 -6 8 -14 0 -8 5 -27 12 -43 6 -15 12
-30 13 -33 1 -3 8 -18 15 -35 7 -16 13 -33 12 -37 -1 -4 7 -10 18 -13 11 -4
18 -10 15 -15 -6 -10 69 -90 84 -90 5 0 14 -7 21 -15 7 -9 15 -14 17 -11 2 2
17 -8 32 -22 36 -34 57 -51 104 -82 20 -14 37 -28 37 -32 0 -5 7 -8 15 -8 9 0
18 -6 21 -14 3 -8 13 -12 25 -9 10 3 19 1 19 -5 0 -16 40 -23 124 -23 93 1
100 3 186 44 53 26 150 104 150 122 0 12 35 44 40 37 3 -5 30 -27 61 -50 53
-40 109 -56 123 -34 3 4 23 8 45 7 23 -1 41 3 41 7 0 5 6 8 13 7 6 -1 22 -1
34 0 l21 1 1 488 c0 268 -2 499 -6 514 -4 20 -32 49 -97 99 -50 40 -95 78 -99
86 -9 15 -147 17 -147 2 0 -5 -4 -9 -10 -9 -5 0 -10 6 -10 14 0 13 18 18 115
31 22 3 58 10 80 15 22 5 67 14 100 21 73 14 81 19 91 67 17 81 5 179 -36 283
-25 61 -96 159 -116 159 -8 0 -14 10 -14 25 0 15 -5 23 -12 20 -7 -3 -27 8
-45 25 -18 16 -37 30 -42 30 -6 0 -15 9 -21 20 -6 11 -16 20 -23 20 -8 0 -26
13 -42 30 -15 16 -31 27 -35 25 -5 -3 -10 2 -14 10 -3 8 -12 15 -21 15 -8 0
-15 4 -15 9 0 5 -13 12 -30 16 -16 4 -30 10 -30 15 0 5 -9 7 -20 5 -11 -2 -20
0 -20 4 0 5 -15 12 -32 16 -45 10 -219 12 -224 3z m201 -744 c11 -12 22 -21
25 -20 10 2 50 -31 44 -37 -4 -3 5 -9 19 -12 14 -4 33 -17 41 -30 11 -17 21
-21 40 -18 14 3 26 1 26 -4 0 -5 -6 -10 -12 -11 -7 -1 -42 -7 -78 -13 -36 -6
-75 -12 -87 -11 -13 0 -23 -4 -23 -10 0 -5 -15 -8 -32 -6 l-33 3 0 73 c-1 40
3 76 7 78 4 3 8 16 8 29 0 29 22 24 55 -11z"/>
</g>
</svg>
